<?xml version="1.0" encoding="iso-8859-1"?>
<!-- Generator: Adobe Illustrator 19.0.0, SVG Export Plug-In . SVG Version: 6.00 Build 0)  -->
<svg version="1.1" id="Layer_1" xmlns="http://www.w3.org/2000/svg" xmlns:xlink="http://www.w3.org/1999/xlink" x="0px" y="0px"
	 viewBox="0 0 512 512" style="enable-background:new 0 0 512 512;" xml:space="preserve">
<circle style="fill:#F44336;" cx="256" cy="256" r="256"/>
<path style="fill:#FFFFFF;" d="M107.055,124.933c0-9.877,8.001-17.878,17.873-17.878H256l74.473,62.557v217.46
	c0,9.872-8.006,17.873-17.873,17.873H124.928c-9.872,0-17.873-8.001-17.873-17.873V124.933z"/>
<path style="fill:#F0F0F0;" d="M256,107.055v44.684c0,9.872,8.001,17.873,17.873,17.873h56.599L256,107.055z"/>
<polygon style="fill:#F4D0A1;" points="358.4,193.164 381.673,144.291 404.945,193.164 404.945,372.364 358.4,372.364 "/>
<polygon style="fill:#EDBC7C;" points="404.945,218.764 404.945,193.164 381.673,144.291 381.673,218.764 "/>
<path style="fill:#E57373;" d="M404.945,390.982c0,7.713-6.251,13.964-13.964,13.964h-18.618c-7.713,0-13.964-6.251-13.964-13.964
	v-9.309h46.545V390.982z"/>
<g>
	<path style="fill:#E2E4E5;" d="M288.582,209.455c0,2.56-2.095,4.655-4.655,4.655h-69.818c-2.56,0-4.655-2.095-4.655-4.655l0,0
		c0-2.555,2.095-4.655,4.655-4.655h69.818C286.487,204.8,288.582,206.899,288.582,209.455L288.582,209.455z"/>
	<path style="fill:#E2E4E5;" d="M260.655,232.727c0,2.56-2.095,4.655-4.655,4.655h-41.891c-2.56,0-4.655-2.095-4.655-4.655l0,0
		c0-2.555,2.095-4.655,4.655-4.655H256C258.56,228.073,260.655,230.172,260.655,232.727L260.655,232.727z"/>
	<path style="fill:#E2E4E5;" d="M288.582,269.964c0,2.56-2.095,4.655-4.655,4.655h-69.818c-2.56,0-4.655-2.095-4.655-4.655l0,0
		c0-2.555,2.095-4.655,4.655-4.655h69.818C286.487,265.309,288.582,267.408,288.582,269.964L288.582,269.964z"/>
	<path style="fill:#E2E4E5;" d="M260.655,293.236c0,2.56-2.095,4.655-4.655,4.655h-41.891c-2.56,0-4.655-2.095-4.655-4.655l0,0
		c0-2.555,2.095-4.655,4.655-4.655H256C258.56,288.582,260.655,290.681,260.655,293.236L260.655,293.236z"/>
	<path style="fill:#E2E4E5;" d="M288.582,330.473c0,2.56-2.095,4.655-4.655,4.655h-69.818c-2.56,0-4.655-2.095-4.655-4.655l0,0
		c0-2.555,2.095-4.655,4.655-4.655h69.818C286.487,325.818,288.582,327.917,288.582,330.473L288.582,330.473z"/>
	<path style="fill:#E2E4E5;" d="M260.655,353.745c0,2.56-2.095,4.655-4.655,4.655h-41.891c-2.56,0-4.655-2.095-4.655-4.655l0,0
		c0-2.555,2.095-4.655,4.655-4.655H256C258.56,349.091,260.655,351.19,260.655,353.745L260.655,353.745z"/>
</g>
<g>
	<path style="fill:#26A69A;" d="M163.221,242.036l-17.566-17.566c-1.82-1.815-1.82-4.762,0-6.582c1.82-1.811,4.762-1.811,6.582,0
		l10.361,10.361l20.01-24.013c1.643-1.974,4.58-2.239,6.554-0.596c1.974,1.643,2.243,4.58,0.596,6.558L163.221,242.036z"/>
	<path style="fill:#26A69A;" d="M163.221,302.545l-17.566-17.566c-1.82-1.815-1.82-4.762,0-6.582c1.82-1.811,4.762-1.811,6.582,0
		l10.361,10.361l20.01-24.013c1.643-1.974,4.58-2.239,6.554-0.596s2.243,4.58,0.596,6.558L163.221,302.545z"/>
	<path style="fill:#26A69A;" d="M163.221,363.055l-17.566-17.566c-1.82-1.815-1.82-4.762,0-6.582c1.82-1.811,4.762-1.811,6.582,0
		l10.361,10.361l20.01-24.013c1.643-1.974,4.58-2.239,6.554-0.596c1.974,1.643,2.243,4.58,0.596,6.558L163.221,363.055z"/>
</g>
<rect x="358.4" y="367.709" style="fill:#FDD835;" width="46.545" height="13.964"/>
<rect x="358.4" y="372.364" style="fill:#FFEE58;" width="23.273" height="9.309"/>
<path style="fill:#212121;" d="M381.733,144.216l-8.643,18.153c2.383,3.151,5.357,5.12,8.643,5.12c3.281,0,6.26-1.969,8.644-5.12
	L381.733,144.216z"/>
<path style="fill:#1565C0;" d="M393.309,200.145c-5.376,0-9.896-3.635-11.236-8.588c-0.121-0.451-0.684-0.451-0.805,0
	c-1.341,4.952-5.86,8.588-11.231,8.588c-4.901,0-9.09-3.025-10.808-7.308c-0.182-0.451-0.829-0.33-0.829,0.158v179.368h46.545
	V192.996c0-0.489-0.652-0.614-0.833-0.163C402.395,197.12,398.206,200.145,393.309,200.145z"/>
<path style="fill:#42A5F5;" d="M358.4,372.364V193.136c0-0.517,0.68-0.652,0.88-0.168c1.75,4.212,5.907,7.177,10.757,7.177
	c5.395,0,9.928-3.668,11.25-8.648c0.061-0.242,0.386-0.219,0.386,0.037v180.829H358.4z"/>
<path style="fill:#F5B1A9;" d="M358.4,381.673v9.309c0,7.713,6.251,13.964,13.964,13.964h9.309v-23.273H358.4z"/>
<g>
</g>
<g>
</g>
<g>
</g>
<g>
</g>
<g>
</g>
<g>
</g>
<g>
</g>
<g>
</g>
<g>
</g>
<g>
</g>
<g>
</g>
<g>
</g>
<g>
</g>
<g>
</g>
<g>
</g>
</svg>
