<?xml version="1.0"?>
<svg xmlns="http://www.w3.org/2000/svg" xmlns:xlink="http://www.w3.org/1999/xlink" version="1.1" id="Layer_1" x="0px" y="0px" viewBox="0 0 512 512" style="enable-background:new 0 0 512 512;" xml:space="preserve" width="512px" height="512px" class=""><g><circle style="fill:#0091EA;" cx="256" cy="256" r="256" data-original="#0091EA" class=""/><path style="fill:#FFFFFF;" d="M256.009,404.936h148.936l-18.618-51.2c-2.863-6.205-7.903-11.148-14.164-13.885L311.855,316.5  l-9.309-4.655c0,0-4.655,37.246-46.545,37.246s-46.545-37.246-46.545-37.246l-9.309,4.655l-60.314,23.352  c-6.26,2.737-11.297,7.675-14.159,13.885l-18.618,51.2h148.936l0.009,0.009L256.009,404.936z" data-original="#FFFFFF" class=""/><polygon style="fill:#1565C0;" points="349.091,377.009 349.091,330.473 325.818,321.164 325.818,358.4 186.182,358.4   186.182,321.164 162.909,330.473 162.909,377.009 153.6,404.945 358.4,404.945 " data-original="#1565C0" class=""/><rect x="200.145" y="377.018" style="fill:#42A5F5;" width="111.709" height="13.954" data-original="#42A5F5" class=""/><path style="fill:#E9BEBE" d="M325.818,209.445c-4.655,0-4.655,5.171-4.655,5.171v-5.171c-0.019-9.686-0.293-18.614-1.438-26.629  c-12.674-3.565-35.7-8.713-63.6-8.932v-0.005c-0.042,0-0.084,0-0.126,0s-0.084,0-0.126,0v0.005  c-27.895,0.219-50.921,5.371-63.6,8.932c-1.145,8.015-1.42,16.943-1.438,26.629v37.222l18.618,46.545l23.761,18.6  c2.648,2.974,6.442,4.673,10.426,4.673H256h12.358c3.984,0,7.778-1.699,10.426-4.673l23.761-18.604l14.927-37.316  c13.196-0.95,17.655-20.964,17.655-36.11C335.127,214.612,330.473,209.445,325.818,209.445z" data-original="#A16D5A" class="" data-old_color="#EEC6C6"/><path style="fill:#EFC8C8" d="M255.874,173.88c-27.895,0.219-50.921,5.371-63.6,8.932c-1.145,8.015-1.42,16.943-1.438,26.629v5.171  c0,0,0-5.171-4.655-5.171c-4.655,0-9.309,5.171-9.309,10.342c0,15.146,4.459,35.16,17.655,36.11l14.927,37.316l23.761,18.6  c2.648,2.974,6.442,4.673,10.426,4.673H256V173.875C255.958,173.875,255.916,173.875,255.874,173.88L255.874,173.88z" data-original="#BC8B7A" class="" data-old_color="#EFC7C7"/><path style="fill:#EDB9B9" d="M268.358,316.509H256h-12.358c-3.984,0-7.778-1.699-10.426-4.673l-23.761-18.6v20.945  c0,0,0,34.909,46.545,34.909s46.545-34.909,46.545-34.909v-20.945l-23.761,18.6C276.136,314.81,272.342,316.509,268.358,316.509z" data-original="#824F3F" class="" data-old_color="#EDBABA"/><path style="fill:#E9BEBE" d="M233.216,311.836l-23.761-18.6v20.945c0,0,0,34.909,46.545,34.909v-32.582h-12.358  C239.658,316.509,235.864,314.81,233.216,311.836z" data-original="#A16D5A" class="" data-old_color="#EEC6C6"/><path style="fill:#5F5252" d="M232.727,265.281h46.545c0,0,0,13.964-23.273,13.964S232.727,265.281,232.727,265.281z" data-original="#733825" class="" data-old_color="#605353"/><g>
	<path style="fill:#222530" d="M242.008,218.922c0-5.143-4.17-9.309-9.309-9.309c-0.009,0-0.019,0.005-0.028,0.005   c0.005,0.093,0.028,0.186,0.028,0.284c0,5.134-4.152,9.29-9.281,9.309c0.154,5.004,4.236,9.021,9.281,9.021   C237.838,228.231,242.008,224.065,242.008,218.922z" data-original="#212121" class="active-path" data-old_color="#232631"/>
	<path style="fill:#222530" d="M288.521,218.922c0-5.143-4.17-9.309-9.309-9.309c-0.009,0-0.019,0.005-0.028,0.005   c0.005,0.093,0.028,0.186,0.028,0.284c0,5.134-4.152,9.29-9.281,9.309c0.154,5.004,4.236,9.021,9.281,9.021   C284.355,228.231,288.521,224.065,288.521,218.922z" data-original="#212121" class="active-path" data-old_color="#232631"/>
</g><g>
	<path style="fill:#5F5252" d="M186.182,195.491c0,10.035,4.655,55.263,4.655,60.509c0,0,0,0,4.655,9.309c0,0,0,0,4.655,0   c0-6.437-4.655-60.509,13.964-74.473L186.182,195.491z" data-original="#733825" class="" data-old_color="#605353"/>
	<path style="fill:#5F5252" d="M325.818,195.491c0,10.035-4.655,55.263-4.655,60.509c0,0,0,0-4.655,9.309c0,0,0,0-4.655,0   c0-6.437,4.655-60.509-13.964-74.473L325.818,195.491z" data-original="#733825" class="" data-old_color="#605353"/>
</g><path style="fill:#FDD836;" d="M186.182,190.836c0,0-4.655-69.818,69.818-69.818c0,37.236,0,69.818,0,69.818H186.182z" data-original="#FDD836"/><path style="fill:#FBC02D;" d="M325.818,190.836c0,0,4.655-69.818-69.818-69.818c0,37.236,0,69.818,0,69.818H325.818z" data-original="#FBC02D"/><path style="fill:#FEED57" d="M269.964,144.291v-27.927c0-5.139-4.17-9.309-9.309-9.309h-9.309c-5.139,0-9.309,4.17-9.309,9.309  v27.927c0.312,8.22-8.941,35.942-32.582,37.236c22.589,0,30.282,0,32.582,0h0.88h26.163h0.884c2.299,0,9.989,0,32.582,0  C278.905,180.233,269.652,152.511,269.964,144.291z" data-original="#FEED57" class=""/><path style="fill:#FBC02D;" d="M339.782,191.995c0,2.113-1.42,3.952-3.463,4.496c-9.044,2.397-35.817,8.308-80.319,8.308  c-44.507,0-71.275-5.911-80.319-8.313c-2.039-0.54-3.463-2.383-3.463-4.492v-1.159c0-5.139,4.17-9.309,9.309-9.309h148.945  c5.139,0,9.309,4.17,9.309,9.309V191.995z" data-original="#FBC02D"/><path style="fill:#FDD836;" d="M181.527,181.527c-5.139,0-9.309,4.17-9.309,9.309v1.159c0,2.109,1.424,3.956,3.463,4.496  c9.044,2.397,35.812,8.308,80.319,8.308v-23.273H181.527z" data-original="#FDD836"/></g> </svg>
