<?xml version="1.0" encoding="iso-8859-1"?>
<!-- Generator: Adobe Illustrator 19.0.0, SVG Export Plug-In . SVG Version: 6.00 Build 0)  -->
<svg version="1.1" id="Layer_1" xmlns="http://www.w3.org/2000/svg" xmlns:xlink="http://www.w3.org/1999/xlink" x="0px" y="0px"
	 viewBox="0 0 512 512" style="enable-background:new 0 0 512 512;" xml:space="preserve">
<circle style="fill:#FFC400;" cx="256" cy="256" r="256"/>
<g>
	<path style="fill:#733725;" d="M140.977,340.559l-30.785,38.973c-4.799,6.079-4.003,14.843,1.811,19.959l1.122,0.982
		c5.814,5.115,14.615,4.78,20.024-0.759l36.389-31.479C158.743,360.415,149.132,351.088,140.977,340.559z"/>
	<path style="fill:#733725;" d="M395.539,379.532l-32.247-40.82c-8.057,10.771-17.636,20.34-28.411,28.393l37.702,32.61
		c5.413,5.539,14.215,5.874,20.029,0.759l1.122-0.982C399.546,394.375,400.342,385.61,395.539,379.532z"/>
</g>
<circle style="fill:#D32F2F;" cx="251.392" cy="255.153" r="139.636"/>
<path style="fill:#EF5350;" d="M251.411,115.517c-77.117,0-139.636,62.52-139.636,139.636c0,39.224,16.193,74.645,42.235,100.008
	l197.413-197.413C326.056,131.71,290.634,115.517,251.411,115.517z"/>
<circle style="fill:#F0F0F0;" cx="251.439" cy="255.153" r="99.742"/>
<path style="fill:#FFFFFF;" d="M251.411,155.415c-55.082,0-99.738,44.656-99.738,99.742c0,28.207,11.753,53.625,30.576,71.768
	l140.93-140.93C305.036,167.173,279.617,155.415,251.411,155.415z"/>
<circle style="fill:#D32F2F;" cx="251.392" cy="255.153" r="59.843"/>
<path style="fill:#EF5350;" d="M251.411,195.309c-33.052,0-59.839,26.792-59.839,59.843c0,17.189,7.284,32.642,18.893,43.557
	l84.503-84.508C284.053,202.598,268.6,195.309,251.411,195.309z"/>
<circle style="fill:#E2E4E5;" cx="251.392" cy="255.153" r="19.949"/>
<g>
	<path style="fill:#FFFFFF;" d="M251.411,235.203c-11.013,0-19.945,8.932-19.945,19.949c0,6.256,2.937,11.762,7.443,15.421
		l27.932-27.932C263.177,238.145,257.662,235.203,251.411,235.203z"/>
	<path style="fill:#FFFFFF;" d="M365.917,131.989c0.428-0.451,0.894-0.847,1.396-1.196c0-5.781,0-17.138,0-23.743
		c-8.941,8.937-39.671,31.032-36.631,61.947L365.917,131.989z"/>
	<path style="fill:#FFFFFF;" d="M380.062,143.239c-0.372,0.568-0.801,1.108-1.299,1.587l-35.063,33.382
		c29.189,2.49,50.055-26.498,58.522-34.97C396.106,143.239,385.708,143.239,380.062,143.239z"/>
</g>
<path style="fill:#733725;" d="M254.348,261.25c-1.871,1.787-4.827,1.75-6.661-0.079c-1.834-1.834-1.866-4.785-0.079-6.665
	l118.309-122.517c1.69-1.773,4.022-2.793,6.47-2.821c2.448-0.033,4.803,0.931,6.535,2.658c1.732,1.731,2.686,4.087,2.658,6.535
	c-0.033,2.444-1.047,4.776-2.816,6.465L254.348,261.25z"/>
<g>
</g>
<g>
</g>
<g>
</g>
<g>
</g>
<g>
</g>
<g>
</g>
<g>
</g>
<g>
</g>
<g>
</g>
<g>
</g>
<g>
</g>
<g>
</g>
<g>
</g>
<g>
</g>
<g>
</g>
</svg>
